<svg version="1.1" id="Layer_1" xmlns="http://www.w3.org/2000/svg" xmlns:xlink="http://www.w3.org/1999/xlink" x="0px" y="0px"
	 width="100%" viewBox="0 0 192 144" enable-background="new 0 0 192 144" xml:space="preserve">
<path fill="#000000" opacity="1.000000" stroke="none" 
	d="
M127.548592,136.764374 
	C95.784843,150.114349 62.996346,134.174026 50.188614,106.828987 
	C32.817028,69.739944 51.093353,26.006142 93.456375,18.265560 
	C129.922440,11.602472 159.327530,37.499115 163.453964,70.417435 
	C166.950134,98.307922 152.666962,125.079857 127.548592,136.764374 
M154.191711,64.293900 
	C153.421341,61.926785 152.831650,59.482063 151.853302,57.204281 
	C138.675858,26.524717 99.421562,14.077343 71.022316,37.347939 
	C55.029259,50.452793 47.638039,73.007126 53.376194,92.491554 
	C54.234379,95.405609 55.982357,96.190887 58.591618,95.577209 
	C60.192192,95.200783 61.726906,94.495270 63.247868,93.837372 
	C72.730080,89.735779 82.259811,89.416939 91.758064,93.648354 
	C96.920036,95.947975 102.203316,96.626976 107.791435,95.987709 
	C110.807800,95.642647 113.650436,94.981682 116.417534,93.737297 
	C125.904778,89.470833 135.408966,89.683899 144.927734,93.733315 
	C152.932098,97.138489 153.436966,96.702660 155.365738,88.195122 
	C157.144562,80.348946 156.442642,72.710854 154.191711,64.293900 
M105.437157,104.400597 
	C99.683228,104.771851 94.265388,103.644157 88.965515,101.310898 
	C84.420898,99.310135 79.625870,97.162758 74.545982,98.618599 
	C69.174957,100.157898 63.995914,102.367073 58.799313,104.259499 
	C58.880016,106.853622 59.970211,108.419434 61.436893,109.764488 
	C78.683327,105.292885 78.680016,105.303581 96.116066,110.698265 
	C102.546265,112.687752 108.892944,112.499901 115.090576,109.741066 
	C124.123810,105.719978 133.314636,104.563019 142.631256,108.598503 
	C147.183960,110.570503 148.484665,108.204575 149.358047,104.251900 
	C146.375565,103.100632 143.542862,102.187401 140.866425,100.939125 
	C133.788101,97.637886 126.899094,97.513596 119.784508,101.060738 
	C115.645912,103.124123 111.209099,104.741982 105.437157,104.400597 
M74.994980,121.733528 
	C81.080887,121.230011 86.891708,122.124519 92.481804,124.727646 
	C99.383575,127.941574 106.503830,128.932846 113.712509,125.705032 
	C120.343025,122.736092 127.150337,121.054451 134.502396,121.632507 
	C137.256927,121.849083 138.940536,119.842758 140.327942,116.950577 
	C134.143188,113.382607 127.963654,113.483734 121.693054,116.022697 
	C114.019951,119.129555 106.217995,120.836876 97.891510,119.390358 
	C93.747673,118.670479 89.966858,116.946251 86.025429,115.661453 
	C79.814270,113.636780 73.783813,113.723534 67.693176,116.968361 
	C69.427811,119.837051 71.043266,121.832130 74.994980,121.733528 
z"/>
<path fill="#000000" opacity="1.000000" stroke="none" 
	d="
M117.830658,55.246254 
	C120.735306,60.044868 122.604958,64.699707 122.365959,70.141045 
	C121.907982,80.567825 112.962326,88.988258 102.941620,88.134705 
	C92.239471,87.223106 84.163528,76.794937 85.952011,66.290237 
	C86.810394,61.248524 89.111862,56.821484 91.745018,52.576138 
	C95.483826,46.548183 99.441368,40.655910 103.774773,33.982948 
	C109.414734,41.034538 113.456314,48.029671 117.830658,55.246254 
z"/>
</svg>